HIERARCHY
ROOT Hips
{
	OFFSET 80.650703 -23.173313 87.145500
	CHANNELS 6 Xposition Yposition Zposition Xrotation Yrotation Zrotation
	JOINT spine
	{
		OFFSET 0.000000 -0.393702 6.846359
		CHANNELS 3 Xrotation Yrotation Zrotation
		JOINT spine1
		{
			OFFSET 0.000000 -0.000002 9.496208
			CHANNELS 3 Xrotation Yrotation Zrotation
			JOINT spine2
			{
				OFFSET 0.000000 -0.000002 9.099091
				CHANNELS 3 Xrotation Yrotation Zrotation
				JOINT Neck
				{
					OFFSET 0.000000 -1.113783 23.361206
					CHANNELS 3 Xrotation Yrotation Zrotation
					JOINT Head
					{
						OFFSET 0.000000 0.000000 7.058014
						CHANNELS 3 Xrotation Yrotation Zrotation
						End Site
						{
							OFFSET 0.000000 5.634186 17.084396
						}
					}
				}
				JOINT RightShoulder
				{
					OFFSET -3.831360 0.533491 9.826317
					CHANNELS 3 Xrotation Yrotation Zrotation
					JOINT RightArm
					{
						OFFSET 0.000000 -0.000004 12.888100
						CHANNELS 3 Xrotation Yrotation Zrotation
						JOINT RightArmRoll
						{
							OFFSET 0.000000 0.000000 6.506165
							CHANNELS 3 Xrotation Yrotation Zrotation
							JOINT RightForeArm
							{
								OFFSET 0.000000 -0.000004 18.950104
								CHANNELS 3 Xrotation Yrotation Zrotation
								JOINT RightForeArmRoll
								{
									OFFSET 0.000000 0.000000 7.300919
									CHANNELS 3 Xrotation Yrotation Zrotation
									JOINT RightHand
									{
										OFFSET 0.000000 -0.000004 14.651398
										CHANNELS 3 Xrotation Yrotation Zrotation
										End Site
										{
											OFFSET 0.000000 0.000000 0.100006
										}
									}
								}
							}
						}
					}
				}
				JOINT LeftShoulder
				{
					OFFSET 3.831360 0.533491 9.826317
					CHANNELS 3 Xrotation Yrotation Zrotation
					JOINT LeftArm
					{
						OFFSET 0.000000 -0.000004 12.888100
						CHANNELS 3 Xrotation Yrotation Zrotation
						JOINT LeftArmRoll
						{
							OFFSET 0.000000 0.000000 6.506165
							CHANNELS 3 Xrotation Yrotation Zrotation
							JOINT LeftForeArm
							{
								OFFSET 0.000000 -0.000004 18.950104
								CHANNELS 3 Xrotation Yrotation Zrotation
								JOINT LeftForeArmRoll
								{
									OFFSET 0.000000 0.000000 7.300919
									CHANNELS 3 Xrotation Yrotation Zrotation
									JOINT LeftHand
									{
										OFFSET 0.000000 -0.000004 14.651398
										CHANNELS 3 Xrotation Yrotation Zrotation
										End Site
										{
											OFFSET 0.000000 0.000000 0.100006
										}
									}
								}
							}
						}
					}
				}
			}
		}
	}
	JOINT RightUpLeg
	{
		OFFSET -6.068367 0.933477 -1.112778
		CHANNELS 3 Xrotation Yrotation Zrotation
		JOINT RightUpLegRoll
		{
			OFFSET 0.000000 -0.000004 17.179604
			CHANNELS 3 Xrotation Yrotation Zrotation
			JOINT RightLeg
			{
				OFFSET 0.000000 0.000004 -21.274300
				CHANNELS 3 Xrotation Yrotation Zrotation
				JOINT RightLegRoll
				{
					OFFSET 0.000000 -0.000004 21.343903
					CHANNELS 3 Xrotation Yrotation Zrotation
					JOINT RightFoot
					{
						OFFSET 0.000000 -0.000002 17.765198
						CHANNELS 3 Xrotation Yrotation Zrotation
						JOINT RightToeBase
						{
							OFFSET 0.000000 -0.000004 14.850792
							CHANNELS 3 Xrotation Yrotation Zrotation
							End Site
							{
								OFFSET 0.006294 0.829004 7.192123
							}
						}
					}
				}
			}
		}
	}
	JOINT LeftUpLeg
	{
		OFFSET 6.068367 0.933477 -1.112778
		CHANNELS 3 Xrotation Yrotation Zrotation
		JOINT LeftUpLegRoll
		{
			OFFSET 0.000000 -0.000004 17.179703
			CHANNELS 3 Xrotation Yrotation Zrotation
			JOINT LeftLeg
			{
				OFFSET 0.000000 -0.000004 21.274200
				CHANNELS 3 Xrotation Yrotation Zrotation
				JOINT LeftLegRoll
				{
					OFFSET 0.000000 -0.000002 21.541206
					CHANNELS 3 Xrotation Yrotation Zrotation
					JOINT LeftFoot
					{
						OFFSET 0.000000 -0.000004 17.567902
						CHANNELS 3 Xrotation Yrotation Zrotation
						JOINT LeftToeBase
						{
							OFFSET 0.000000 -0.000002 14.850800
							CHANNELS 3 Xrotation Yrotation Zrotation
							End Site
							{
								OFFSET -0.028214 0.829002 7.192139
							}
						}
					}
				}
			}
		}
	}
}
MOTION
Frames: 9
Frame Time: 0.041667
47.252399 -9.480534 91.191826 0.879576 -0.483891 -4.097922 -1.004559 -0.443857 0.116661 2.000163 -0.910955 0.232116 3.645318 -0.908106 0.240729 34.693942 9.011600 8.609447 -4.729714 5.292118 9.344641 29.993833 -64.904364 32.778368 -41.597515 -109.339014 -83.025485 -0.000002 -0.000019 -0.000008 84.845184 3.206052 -6.314243 -0.000003 0.000005 -2.999990 -4.999869 -7.999931 -0.000009 -8.105637 64.299817 9.910593 -15.744023 115.544111 68.282733 -0.000001 -0.000000 -0.000009 101.246128 -6.757617 16.073095 0.000001 -0.000003 3.005890 -4.999815 8.000545 -0.000051 -7.577440 179.131656 -1.963530 -179.999991 0.000005 -0.941004 170.651033 -1.877736 -0.495076 -0.000003 -0.000003 0.063912 67.864883 6.911582 2.176815 25.456877 -7.352763 -0.000010 -10.642076 171.169049 -1.244776 -0.000004 -0.000002 -1.113800 -19.602296 1.148184 0.902145 -0.000005 0.000003 -0.276230 68.894957 -6.887526 -2.143753 25.456952 7.355613 -0.000001 
47.247894 -9.488346 91.188713 0.869661 -0.502566 -4.115393 -1.001757 -0.443834 0.119164 2.005382 -0.909019 0.237040 3.650537 -0.906113 0.245793 34.632109 8.975098 8.659712 -4.749209 5.365739 9.382756 29.970686 -64.917758 32.749599 -41.259636 -109.273915 -82.712396 -0.000002 -0.000019 -0.000003 84.988372 3.290119 -6.417075 -0.000002 0.000004 -2.999989 -4.999872 -7.999927 -0.000008 -8.110160 64.313054 9.916688 -15.723483 115.768291 67.896971 -0.000001 0.000000 -0.000011 101.175927 -6.648997 15.923259 -0.000000 -0.000002 3.005892 -4.999817 8.000549 -0.000049 -7.572195 179.148485 -1.955749 -179.999991 0.000005 -0.941004 170.646648 -1.875745 -0.494895 -0.000003 -0.000003 0.063629 67.854589 6.911573 2.176858 25.456873 -7.352762 -0.000010 -10.715080 171.185878 -1.234046 -0.000004 -0.000003 -1.113800 -19.741786 1.142102 0.908003 -0.000005 0.000002 -0.278491 68.899171 -6.887529 -2.143691 25.456955 7.355614 -0.000001 
47.251801 -9.498940 91.190712 0.859430 -0.521038 -4.132085 -0.998806 -0.443800 0.121727 2.010892 -0.906995 0.242108 3.656045 -0.904029 0.251007 34.568766 8.934691 8.709822 -4.767115 5.441511 9.420133 29.947784 -64.933304 32.720598 -40.922822 -109.206556 -82.400474 -0.000001 -0.000019 -0.000002 85.131737 3.373558 -6.520357 -0.000002 -0.000000 -2.999991 -4.999871 -7.999930 -0.000009 -8.110006 64.326039 9.917421 -15.692783 116.000477 67.487071 -0.000001 0.000000 -0.000011 101.107461 -6.537117 15.771325 0.000001 -0.000004 3.005890 -4.999816 8.000546 -0.000048 -7.566625 179.165342 -1.947751 -179.999991 0.000005 -0.941004 170.642140 -1.873753 -0.494719 -0.000003 -0.000003 0.063360 67.844392 6.911572 2.176796 25.456873 -7.352764 -0.000009 -10.787754 171.203719 -1.223603 -0.000004 -0.000003 -1.113790 -19.881072 1.135921 0.913823 -0.000005 0.000002 -0.280738 68.903181 -6.887516 -2.143838 25.456950 7.355613 -0.000001 
47.249596 -9.505067 91.193817 0.848967 -0.539365 -4.148238 -0.995745 -0.443757 0.124332 2.016601 -0.904907 0.247276 3.661764 -0.901880 0.256324 34.504534 8.891386 8.759834 -4.783935 5.518795 9.457007 29.925183 -64.950202 32.691529 -40.582044 -109.139381 -82.084326 -0.000002 -0.000019 -0.000003 85.275315 3.456428 -6.624167 -0.000002 0.000007 -2.999989 -4.999871 -7.999930 -0.000009 -8.106606 64.338907 9.914434 -15.655058 116.237935 67.060416 -0.000001 -0.000000 -0.000011 101.040477 -6.422722 15.618375 0.000000 -0.000002 3.005891 -4.999816 8.000548 -0.000051 -7.560826 179.182172 -1.939591 -179.999991 0.000005 -0.941004 170.637523 -1.871747 -0.495554 -0.000003 -0.000002 0.063100 67.834311 6.911537 2.176822 25.456878 -7.352764 -0.000011 -10.860340 171.220548 -1.213027 -0.000005 -0.000003 -1.113790 -20.020357 1.129675 0.919620 -0.000005 0.000004 -0.282974 68.907183 -6.887505 -2.143888 25.456952 7.355615 0.000001 
47.246601 -9.513206 91.192116 0.838380 -0.557610 -4.164071 -0.992626 -0.443708 0.126964 2.022431 -0.902784 0.252502 3.667592 -0.899696 0.261699 34.439774 8.846389 8.809745 -4.800126 5.596934 9.493617 29.902681 -64.967837 32.662330 -40.241962 -109.071147 -81.769181 -0.000002 -0.000019 -0.000004 85.419241 3.538682 -6.728423 -0.000003 0.000004 -2.999990 -4.999870 -7.999932 -0.000011 -8.101332 64.351672 9.909298 -15.612892 116.478891 66.623625 -0.000001 -0.000000 -0.000008 100.974587 -6.306986 15.464487 0.000000 -0.000004 3.005891 -4.999817 8.000547 -0.000053 -7.554917 179.199015 -1.931329 -179.999991 0.000005 -0.941004 170.632865 -1.869753 -0.495382 -0.000003 -0.000002 0.062845 67.824311 6.911472 2.176836 25.456877 -7.352763 -0.000010 -10.932824 171.237391 -1.202506 -0.000003 -0.000005 -1.113790 -20.159640 1.123376 0.925387 -0.000006 0.000003 -0.285204 68.911097 -6.887521 -2.143847 25.456957 7.355613 0.000000 
47.244900 -9.520459 91.194313 0.827756 -0.575827 -4.179832 -0.989494 -0.443660 0.129599 2.028290 -0.900649 0.257740 3.673441 -0.897502 0.267090 34.374908 8.800908 8.859551 -4.816170 5.675260 9.530177 29.879950 -64.985746 32.632871 -39.899496 -109.003556 -81.451761 -0.000002 -0.000019 -0.000005 85.563446 3.620423 -6.833116 -0.000002 0.000003 -2.999989 -4.999870 -7.999931 -0.000010 -8.095598 64.364472 9.903622 -15.569944 116.719655 66.184642 -0.000001 0.000000 -0.000010 100.909584 -6.190617 15.311732 0.000002 -0.000000 3.005890 -4.999815 8.000552 -0.000052 -7.548958 179.215858 -1.923057 -179.999991 0.000005 -0.941004 170.628193 -1.867747 -0.495208 -0.000003 -0.000003 0.062591 67.814325 6.911443 2.176758 25.456877 -7.352764 -0.000011 -11.005206 171.254248 -1.192042 -0.000003 -0.000004 -1.113780 -20.298825 1.117044 0.931125 -0.000005 0.000004 -0.287433 68.914990 -6.887501 -2.144000 25.456955 7.355613 0.000000 
47.239201 -9.521312 91.192505 0.817198 -0.594079 -4.195758 -0.986388 -0.443612 0.132224 2.034090 -0.898533 0.262950 3.679249 -0.895323 0.272449 34.310356 8.756060 8.909304 -4.832538 5.753141 9.566951 29.857185 -65.003211 32.603491 -39.553547 -108.937569 -81.131268 -0.000002 -0.000020 -0.000004 85.707925 3.701726 -6.938141 -0.000002 0.000004 -2.999991 -4.999871 -7.999928 -0.000010 -8.090805 64.377320 9.899045 -15.528859 116.958479 65.750085 -0.000001 -0.000000 -0.000009 100.844697 -6.074707 15.158165 0.000001 -0.000005 3.005892 -4.999817 8.000545 -0.000049 -7.543075 179.232688 -1.914818 -179.999991 0.000005 -0.941004 170.623535 -1.865754 -0.495034 -0.000003 -0.000002 0.062335 67.804244 6.911442 2.176789 25.456877 -7.352764 -0.000009 -11.077676 171.271105 -1.181612 -0.000003 -0.000004 -1.113780 -20.438110 1.110714 0.936844 -0.000005 0.000002 -0.289665 68.918890 -6.887518 -2.143963 25.456955 7.355614 0.000000 
47.237801 -9.529872 91.195816 0.806805 -0.612424 -4.212086 -0.983360 -0.443571 0.134817 2.039750 -0.896459 0.268088 3.684897 -0.893189 0.277735 34.246565 8.713146 8.959047 -4.849709 5.829905 9.604171 29.834468 -65.019658 32.574381 -39.206710 -108.872607 -80.810447 -0.000002 -0.000020 -0.000004 85.852800 3.782593 -7.043699 -0.000003 0.000002 -2.999989 -4.999871 -7.999930 -0.000008 -8.088313 64.390229 9.897089 -15.492259 117.193602 65.326607 -0.000001 -0.000000 -0.000010 100.780076 -5.959869 15.006824 0.000002 -0.000004 3.005892 -4.999818 8.000541 -0.000052 -7.537344 179.249545 -1.906685 -179.999991 0.000005 -0.941004 170.618959 -1.863762 -0.494858 -0.000003 -0.000003 0.062072 67.794142 6.911399 2.176813 25.456875 -7.352763 -0.000010 -11.150346 171.287976 -1.171191 -0.000004 -0.000004 -1.113780 -20.577395 1.104396 0.942540 -0.000005 0.000002 -0.291904 68.922899 -6.887503 -2.144008 25.456952 7.355614 -0.000000 
47.236603 -9.535963 91.196617 0.796669 -0.630919 -4.229058 -0.980454 -0.443538 0.137362 2.045169 -0.894454 0.273109 3.690317 -0.891125 0.282901 34.183939 8.673295 9.008651 -4.868153 5.904892 9.642057 29.811402 -65.034527 32.545346 -38.854484 -108.811252 -80.484723 -0.000002 -0.000020 -0.000006 85.997956 3.863141 -7.149581 -0.000002 0.000005 -2.999991 -4.999869 -7.999932 -0.000010 -8.089561 64.403247 9.899425 -15.463852 117.421388 64.922191 -0.000001 -0.000000 -0.000009 100.714944 -5.847074 14.856809 0.000000 -0.000001 3.005890 -4.999815 8.000552 -0.000050 -7.531872 179.266388 -1.898734 -179.999991 0.000005 -0.941004 170.614492 -1.861756 -0.494677 -0.000003 -0.000003 0.061798 67.783958 6.911379 2.176748 25.456875 -7.352762 -0.000010 -11.223080 171.305830 -1.161003 -0.000004 -0.000004 -1.113780 -20.716780 1.098109 0.948216 -0.000003 0.000002 -0.294155 68.927011 -6.887495 -2.144050 25.456955 7.355613 0.000001 
